<svg width="224pt" height="224pt" viewBox="0 0 224 224" xmlns="http://www.w3.org/2000/svg"><g fill="#fff"><path d="M45.76 25.76c19.38-15.56 44.49-23.72 69.31-22.67 12.71.43 25.27 3.34 36.99 8.23-3.22 5.66-9.64 9.1-16.12 8.98-9.73-2.51-19.81-3.52-29.85-3.42-7.4.35-14.99-.27-22.13 2.13-7.44 1.91-15.12 3.94-21.4 8.56-2.81 2.04-5.27 4.86-5.89 8.38-4.98 1.63-9.78 5.03-11.14 10.39-2.12 9.59.56 19.29 2.76 28.61-3.91 1.82-7.03 5.61-7.17 10.04-.39 4.71 2.53 9.28 6.8 11.19 2.32.93 2.76 3.64 3.14 5.81 1.72 11.05 7.79 21.55 17.01 27.97-4.1 9.54-6.92 19.57-8.32 29.86l-1.64.25c-12.36-.99-24.84-.37-36.97 2.25-12.34-20.26-17.43-44.8-14.19-68.29 3.41-26.66 17.71-51.66 38.81-68.27zM181.84 39.11c.33-2.64-.31-5.42.79-7.93 4.41 4.29 8.67 8.75 12.31 13.71 13.98 18.58 21.6 41.86 21.01 65.12-.3 20.64-6.95 41.14-18.83 58.03-6.01-4.14-12.88-7.11-20.1-8.29-3.13-.19-4.63-3.26-6.57-5.27-4.15-5.19-9.32-9.4-13.87-14.2 9.14-5.69 16.9-14.16 19.99-24.65 1.37-3.67 1.35-7.69 2.58-11.38 3.09-1.39 6.34-3.02 7.86-6.26 3.29-5.83.14-13.8-6.13-16.02-.18-.4-.53-1.21-.7-1.61 2.58-8.13 4.04-16.76 2.96-25.28-.29-2.68-1.91-4.91-3.04-7.28.41-2.93 1.59-5.71 1.74-8.69zM80.41 80.51c3.9-2.32 9.44.88 9.31 5.42.29 4.65-5.33 8.01-9.33 5.65-4.32-2.09-4.33-9.01.02-11.07m.89 2.92c-1.34 1.09-1.76 3.2-.59 4.57 1.44 2.29 5.32 1.53 5.93-1.05 1.02-2.97-3.01-5.63-5.34-3.52zM136.26 80.37c4.3-2.29 9.97 1.86 8.95 6.65-.51 4.61-6.64 6.94-10.14 3.96-3.65-2.62-2.94-8.87 1.19-10.61m1.07 2.92c-1.55 1.09-1.97 3.51-.6 4.91 1.74 2.41 6.13.83 5.88-2.17.19-2.65-3.21-4.27-5.28-2.74zM107.16 126.63c5-1.22 10.08-2.07 15.15-2.95-.94 7.17-11.54 9.22-15.15 2.95zM40.34 185.72c4.31-1.75 8.98-2.21 13.54-2.98 1.32 0 2.65.07 3.97.21.35 5.2.19 10.42.04 15.62-3.46-1.99-6.74-4.28-9.97-6.61-2.67-1.9-5.09-4.12-7.58-6.24z"/></g><g><path d="M155.23 2.97c6.67 2.06 12.73 6.34 16.42 12.31 1.46 2.91 2.62 5.98 3.1 9.22.72 5.49-.07 11.11-1.89 16.32 3.6 4.19 3.86 9.91 3.62 15.16-.15 6.36-1.99 12.49-3.46 18.64-3.35-.86-6.89-.23-9.82 1.54-2.29-6.76-4.72-13.48-6.73-20.34-10.7 5.08-22.61 7.53-34.45 7.24-19.24.67-38.89-3.81-55.4-13.85-2.1 8.98-5.35 17.64-8.31 26.37-3.14-1.47-6.72-1.75-10.02-.63-2.2-9.32-4.88-19.02-2.76-28.61 1.36-5.36 6.16-8.76 11.14-10.39.62-3.52 3.08-6.34 5.89-8.38 6.28-4.62 13.96-6.65 21.4-8.56 7.14-2.4 14.73-1.78 22.13-2.13 10.04-.1 20.12.91 29.85 3.42 6.48.12 12.9-3.32 16.12-8.98 1.57-2.56 2.49-5.45 3.17-8.35zM72.3 68.24c4.02-1.33 8.46-.28 12.65-.62 4.08-.45 7.35 6.13 2.87 8.1-4.51.89-9.3.2-13.91.37-3.79-.35-4.9-6-1.61-7.85zM133.36 68.39c3.92-1.61 8.44-.38 12.61-.77 3.53-.6 7.34 4.83 4.04 7.38-2.15 2.05-5.44.76-8.09 1.12-3.1-.42-7.06 1.17-9.38-1.54-1.62-1.77-1.14-4.86.82-6.19zM81.3 83.43c2.33-2.11 6.36.55 5.34 3.52-.61 2.58-4.49 3.34-5.93 1.05-1.17-1.37-.75-3.48.59-4.57zM137.33 83.29c2.07-1.53 5.47.09 5.28 2.74.25 3-4.14 4.58-5.88 2.17-1.37-1.4-.95-3.82.6-4.91zM100.71 160.24c3.43-2.48 6.85-4.97 10.29-7.43 3.69 2.32 7.17 5.05 10.7 7.64-1.93 2.72-3.56 5.66-5.61 8.29-3.29.05-6.57-.01-9.86.03-2.02-2.65-4.17-5.59-5.52-8.53zM106.11 171.44c3.35.11 6.74-.18 10.08.14 2.24 13.44 4.27 26.92 6.44 40.38.51.07 1.52.23 2.02.31-.7.94-2.57 1.25-3.41.2-6.07.61-12.19.68-18.27.23-1.79-.2-4.17.97-5.65-.4.88-.32 1.74-.7 2.58-1.13 1.73-13.27 3.99-26.52 6.21-39.73z"/></g><g><path opacity=".33" d="M171.65 15.28c2.98.94 4.81 4.1 6.64 6.51 1.18 2.28 3.31 4.91 2.28 7.55-1.93-1.64-3.9-3.22-5.82-4.84-.48-3.24-1.64-6.31-3.1-9.22z"/><path opacity=".33" d="M194.94 44.89l1.63.46c13.9 15.41 22.92 35.16 25.57 55.75 3.17 23.13-1.7 47.27-13.65 67.34-13.64 23.17-36.46 40.78-62.44 47.84-33.61 9.53-71.83.89-97.68-22.72l-.45-1.6c3.23 2.33 6.51 4.62 9.97 6.61 12.04 7.24 25.63 11.49 39.43 13.73 1.48 1.37 3.86.2 5.65.4 6.08.45 12.2.38 18.27-.23.84 1.05 2.71.74 3.41-.2 28.9-3.97 55.9-20.16 72.47-44.23 11.88-16.89 18.53-37.39 18.83-58.03.59-23.26-7.03-46.54-21.01-65.12z"/></g><g fill="#d1d1d1"><path d="M174.75 24.5c1.92 1.62 3.89 3.2 5.82 4.84.73.56 1.41 1.19 2.06 1.84-1.1 2.51-.46 5.29-.79 7.93-.15 2.98-1.33 5.76-1.74 8.69 1.13 2.37 2.75 4.6 3.04 7.28 1.08 8.52-.38 17.15-2.96 25.28-1.75-2.6-4.15-4.75-7.16-5.74 1.47-6.15 3.31-12.28 3.46-18.64.24-5.25-.02-10.97-3.62-15.16 1.82-5.21 2.61-10.83 1.89-16.32zM180.88 81.97c6.27 2.22 9.42 10.19 6.13 16.02-1.52 3.24-4.77 4.87-7.86 6.26-1.23 3.69-1.21 7.71-2.58 11.38-3.09 10.49-10.85 18.96-19.99 24.65-2.83-1.67-4.73-4.57-7.62-6.08-3.49.59-6.4 2.99-9.82 3.91-5.05 1.39-10.15 3.47-15.48 2.92 6.71-1.96 13.92-2.6 20.07-6.15 2.1-1.29 4.55-1.63 6.85-2.4 9.38-5.64 16.7-14.87 19.49-25.53.96-3.17 1.08-6.52 1.97-9.69 2.43-1.18 5.14-2.14 6.75-4.45 2.54-2.97 2.94-7.15 2.09-10.84zM33.68 178.68c7.74-2.68 16.1-3.5 24.25-3.58.33 2.19.34 4.44-.11 6.61-1.29.42-2.61.75-3.94 1.03-4.56.77-9.23 1.23-13.54 2.98-2.35-2.28-4.71-4.54-6.91-6.95l.25-.09z"/></g><path fill="#f9bb8c" d="M66.62 49.21c16.51 10.04 36.16 14.52 55.4 13.85 11.84.29 23.75-2.16 34.45-7.24 2.01 6.86 4.44 13.58 6.73 20.34 2.93-1.77 6.47-2.4 9.82-1.54 3.01.99 5.41 3.14 7.16 5.74.17.4.52 1.21.7 1.61.85 3.69.45 7.87-2.09 10.84-1.61 2.31-4.32 3.27-6.75 4.45-.89 3.17-1.01 6.52-1.97 9.69-2.79 10.66-10.11 19.89-19.49 25.53-2.3.77-4.75 1.11-6.85 2.4-6.15 3.55-13.36 4.19-20.07 6.15l-.58.15c-7.8-.13-15.61-.32-23.41.04-8.06-1.51-16.2-3.25-23.51-7.14-2.78-1.22-5.08-3.41-8.09-4.12-9.22-6.42-15.29-16.92-17.01-27.97-.38-2.17-.82-4.88-3.14-5.81-4.27-1.91-7.19-6.48-6.8-11.19.14-4.43 3.26-8.22 7.17-10.04 3.3-1.12 6.88-.84 10.02.63 2.96-8.73 6.21-17.39 8.31-26.37m5.68 19.03c-3.29 1.85-2.18 7.5 1.61 7.85 4.61-.17 9.4.52 13.91-.37 4.48-1.97 1.21-8.55-2.87-8.1-4.19.34-8.63-.71-12.65.62m61.06.15c-1.96 1.33-2.44 4.42-.82 6.19 2.32 2.71 6.28 1.12 9.38 1.54 2.65-.36 5.94.93 8.09-1.12 3.3-2.55-.51-7.98-4.04-7.38-4.17.39-8.69-.84-12.61.77m-52.95 12.12c-4.35 2.06-4.34 8.98-.02 11.07 4 2.36 9.62-1 9.33-5.65.13-4.54-5.41-7.74-9.31-5.42m55.85-.14c-4.13 1.74-4.84 7.99-1.19 10.61 3.5 2.98 9.63.65 10.14-3.96 1.02-4.79-4.65-8.94-8.95-6.65m-33.96 2.91c-.42 6.88-.07 13.79-.24 20.69-.23 3.79.34 7.95 3.25 10.67 3.17 1.95 7.5 2.63 10.71.36 3.54-1.89 4.19-6.33 3.98-9.96-.25-7.29.29-14.62-.26-21.88-2.5-.74-5.17-.18-7.73-.27-3.23.2-6.55-.47-9.71.39m4.86 43.35c3.61 6.27 14.21 4.22 15.15-2.95-5.07.88-10.15 1.73-15.15 2.95z"/><path fill="#f8a97e" d="M102.3 83.28c3.16-.86 6.48-.19 9.71-.39 2.56.09 5.23-.47 7.73.27.55 7.26.01 14.59.26 21.88.21 3.63-.44 8.07-3.98 9.96-3.21 2.27-7.54 1.59-10.71-.36-2.91-2.72-3.48-6.88-3.25-10.67.17-6.9-.18-13.81.24-20.69z"/><path fill="#e5e5e5" d="M68.07 129.96c3.01.71 5.31 2.9 8.09 4.12 7.31 3.89 15.45 5.63 23.51 7.14 3.99 1.23 8.2.79 12.31.88 3.71-.06 7.51.24 11.1-.92l.58-.15c5.33.55 10.43-1.53 15.48-2.92 3.42-.92 6.33-3.32 9.82-3.91 2.89 1.51 4.79 4.41 7.62 6.08 4.55 4.8 9.72 9.01 13.87 14.2 1.94 2.01 3.44 5.08 6.57 5.27 7.22 1.18 14.09 4.15 20.1 8.29-16.57 24.07-43.57 40.26-72.47 44.23-.5-.08-1.51-.24-2.02-.31-2.17-13.46-4.2-26.94-6.44-40.38-3.34-.32-6.73-.03-10.08-.14-2.22 13.21-4.48 26.46-6.21 39.73-.84.43-1.7.81-2.58 1.13-13.8-2.24-27.39-6.49-39.43-13.73.15-5.2.31-10.42-.04-15.62-1.32-.14-2.65-.21-3.97-.21 1.33-.28 2.65-.61 3.94-1.03.45-2.17.44-4.42.11-6.61-8.15.08-16.51.9-24.25 3.58-4.94-4.65-8.87-10.59-12.54-16.36 12.13-2.62 24.61-3.24 36.97-2.25l1.64-.25c1.4-10.29 4.22-20.32 8.32-29.86m32.64 30.28c1.35 2.94 3.5 5.88 5.52 8.53 3.29-.04 6.57.02 9.86-.03 2.05-2.63 3.68-5.57 5.61-8.29-3.53-2.59-7.01-5.32-10.7-7.64-3.44 2.46-6.86 4.95-10.29 7.43z"/><path fill="#d1c3ba" d="M99.67 141.22c7.8-.36 15.61-.17 23.41-.04-3.59 1.16-7.39.86-11.1.92-4.11-.09-8.32.35-12.31-.88z"/></svg>