<svg width="224pt" height="224pt" viewBox="0 0 224 224" xmlns="http://www.w3.org/2000/svg"><g fill="#fff"><path d="M29.21 42.19c20.71-26.09 54.43-41.23 87.7-38.97l.3.11c1.91.69 3.93.95 5.91 1.34-11.8-.39-23.5 1.65-35.13 3.37-7.07 1.13-14.91 2.3-19.94 7.95-1.22 1.44-2.31 2.97-3.47 4.46l-.81 1c-6.25 1.62-12.28 4.83-16.05 10.22-3.47 4.53-5.3 10.1-6.02 15.72-1.35 9.85.6 19.96 4.37 29.09-3 4.3-4.05 10.49-.37 14.74 2.73 3.82 7.66 4.29 11.96 3.97h.02c4.94 9.92 12.5 18.54 21.97 24.36-8.96 7.15-15.24 17.16-19.37 27.75-1.17 2.89-1.81 5.99-3.16 8.81-1.89.9-3.95 1.38-5.91 2.12-8.61 3.06-16.04 8.81-21.94 15.7-13.89-17.19-22.17-38.82-23.15-60.91-1.3-25.39 7.06-51.1 23.09-70.83zM167.49 19.82c.49.22 1.48.67 1.97.9 11.09 7.61 20.87 17.15 28.44 28.28 12.1 17.86 18.58 39.47 18.06 61.05-.28 17.12-4.88 34.14-13.24 49.09-10.01-9.56-23.36-15.61-37.27-16.08-6.77-9.83-16.55-17.25-27.39-22.08 10.57-5.76 18.92-15 24.43-25.63l.11-.19c4.48.5 9.62-.25 12.31-4.3 3.35-4.23 2.26-10.11-.59-14.29 2.97-7.23 4.71-15 4.67-22.84.4-8.47-2.06-17.29-7.72-23.73-.91-.96-1.82-1.91-2.75-2.84-.12-1.33-.33-2.64-.52-3.96-.13-.85-.39-2.54-.51-3.38zM76.29 66.53c2.27-.51 5.39-2.19 7.29-.15.52 4.02-5.32 2.93-7.83 3.78-.09-1.18-1.17-3.12.54-3.63zM137.35 66.02c1.53-1.37 3.87-.09 5.66.08 1.75.06 2.99 2.08 1.89 3.58-2.67.67-5.34-.54-7.95-1l.4-2.66zM79.1 76.15c2.75-3.81 9.08-3.77 11.77.1 2.98 3.72 1.14 9.6-3.13 11.42-1.82.01-3.63-.01-5.44-.04-4.49-1.62-6.24-7.78-3.2-11.48m4.19 1.14c-2.46 1.33-2.53 5.26-.13 6.7 2.33 1.63 5.93-.08 6.04-2.94.44-3.07-3.31-5.43-5.91-3.76zM130.56 76.5c2.64-4.17 9.44-4.25 12.14-.09 2.77 3.67 1.02 9.24-3 11.19-1.83.05-3.66.06-5.49.05-4.5-1.37-6.4-7.38-3.65-11.15m4.61.66c-2.04 1.13-2.82 4.07-1.27 5.92 1.74 2.56 6.17 1.69 6.89-1.3 1.07-3.16-2.7-6.24-5.62-4.62zM174.7 164.07c5.88 3.42 10.83 8.21 14.64 13.83-3.87 4.32-8.09 8.3-12.59 11.96.23-8.64-.23-17.32-2.05-25.79zM44.37 187.96c2.85-3.95 5.82-7.85 9.57-11 .11 6.41.05 12.82.05 19.23-.5-.32-1.48-.96-1.98-1.27-1.87-1.29-3.76-2.57-5.41-4.15-.84-.86-1.57-1.81-2.23-2.81z"/></g><g fill="#bdbdbd"><path d="M117.21 3.33c3.63-.63 7.19.95 10.84.64 11.41-.39 24.01.32 33.37 7.63 3.45 2.39 4.5 6.89 8.06 9.13l-.02-.01c-.49-.23-1.48-.68-1.97-.9.12.84.38 2.53.51 3.38-11.38-1.42-22.78-2.69-34.02-5.03-15.5-2.28-31.29-4.29-46.95-2.45-3.41.24-6.86.68-9.99 2.14-3-.61-6-1.19-8.99-1.87 5.03-5.65 12.87-6.82 19.94-7.95 11.63-1.72 23.33-3.76 35.13-3.37-1.98-.39-4-.65-5.91-1.34zM47.72 31.67c3.77-5.39 9.8-8.6 16.05-10.22-3.11 3.69-7.28 6.26-10.6 9.74-4.74 4.69-7.81 10.69-11.47 16.2.72-5.62 2.55-11.19 6.02-15.72zM164.93 79.39c7.19-6.91 11.05-16.35 14.06-25.66.04 7.84-1.7 15.61-4.67 22.84-3.66 6.35-7.97 12.29-11.72 18.59l-.11.19c-.43-2.26-.84-4.51-1.31-6.75 1.29-3.06 2.51-6.14 3.75-9.21z"/></g><g fill="#aeaeae"><path d="M87.03 15.72c15.66-1.84 31.45.17 46.95 2.45 11.24 2.34 22.64 3.61 34.02 5.03.19 1.32.4 2.63.52 3.96-1.23 10.49-5.92 20.94-14.42 27.5-6.43 4.3-14.28 5.77-21.91 5.12.52-2.86.61-5.78.18-8.67 8.03-1.03 16.25-2.33 23.41-6.33 3.9-2.16 6.77-5.66 9.48-9.11-6.14.36-12.36.79-18.43-.47-23.51-4.77-46.33-12.38-69.79-17.34 3.13-1.46 6.58-1.9 9.99-2.14zM171.27 30c5.66 6.44 8.12 15.26 7.72 23.73-3.01 9.31-6.87 18.75-14.06 25.66 1.52-6.71 2.7-13.5 3.29-20.35.68-4.27.81-8.61.09-12.89 1.46-5.29 2.67-10.65 2.96-16.15z"/></g><path fill="#a1a1a1" d="M64.58 20.45c1.16-1.49 2.25-3.02 3.47-4.46 2.99.68 5.99 1.26 8.99 1.87 23.46 4.96 46.28 12.57 69.79 17.34 6.07 1.26 12.29.83 18.43.47-2.71 3.45-5.58 6.95-9.48 9.11-7.16 4-15.38 5.3-23.41 6.33-8.56-3.25-17.83-2.52-26.77-3.46-6.43-3.46-13.76-4.65-20.24-7.97-8.58-4.24-16.32-10.64-20.78-19.23z"/><path fill="#afafaf" d="M63.77 21.45l.81-1c4.46 8.59 12.2 14.99 20.78 19.23 6.48 3.32 13.81 4.51 20.24 7.97-12.66-.39-26.64-1.73-36.42-10.69-3.01-3.38-4.58-7.68-5.72-11.99-1.66 3.19-3.81 6.29-4.19 9.96-.34 2.8-.47 5.61-.67 8.42-.24-2.13-.63-4.23-.99-6.34-2.67 6.81-5.12 13.72-6.75 20.86-1.67 6.57-2.11 13.39-4.1 19.89l-.69-1.28c-3.77-9.13-5.72-19.24-4.37-29.09 3.66-5.51 6.73-11.51 11.47-16.2 3.32-3.48 7.49-6.05 10.6-9.74z"/><g fill="#979797"><path d="M59.27 34.93c.38-3.67 2.53-6.77 4.19-9.96 1.14 4.31 2.71 8.61 5.72 11.99-1.96 14.67-5.16 29.14-8.33 43.59-2.88-12.16-3.52-24.79-2.25-37.2.2-2.81.33-5.62.67-8.42zM154.1 54.66c8.5-6.56 13.19-17.01 14.42-27.5.93.93 1.84 1.88 2.75 2.84-.29 5.5-1.5 10.86-2.96 16.15-3.47 5.53-6.87 11.73-12.98 14.74l-1.23-6.23z"/></g><g fill="#a2a2a2"><path d="M50.86 57.87c1.63-7.14 4.08-14.05 6.75-20.86.36 2.11.75 4.21.99 6.34-1.27 12.41-.63 25.04 2.25 37.2-.88 4.91-2.08 9.76-3.17 14.64h-.02c-3.53-5.88-7.38-11.55-10.9-17.43 1.99-6.5 2.43-13.32 4.1-19.89zM155.33 60.89c6.11-3.01 9.51-9.21 12.98-14.74.72 4.28.59 8.62-.09 12.89-.59 6.85-1.77 13.64-3.29 20.35-1.24 3.07-2.46 6.15-3.75 9.21-2.1-9.21-4-18.46-5.85-27.71z"/></g><g fill="#f9bb8c"><path d="M69.18 36.96c9.78 8.96 23.76 10.3 36.42 10.69 8.94.94 18.21.21 26.77 3.46.43 2.89.34 5.81-.18 8.67 7.63.65 15.48-.82 21.91-5.12l1.23 6.23c1.85 9.25 3.75 18.5 5.85 27.71.47 2.24.88 4.49 1.31 6.75-5.51 10.63-13.86 19.87-24.43 25.63l-1.12.6c-1.65.83-3.32 1.61-4.98 2.39 1.71-6.1 1.6-12.61.86-18.85-1.39-4.94-7.34-6.05-11.79-5.9-8.36.14-16.73-.2-25.09.15-4.13.16-8.96 2.91-8.86 7.54-.22 5.7-.62 11.6 1.19 17.1-2.93-1.38-5.86-2.77-8.62-4.46-9.47-5.82-17.03-14.44-21.97-24.36 1.09-4.88 2.29-9.73 3.17-14.64 3.17-14.45 6.37-28.92 8.33-43.59m7.11 29.57c-1.71.51-.63 2.45-.54 3.63 2.51-.85 8.35.24 7.83-3.78-1.9-2.04-5.02-.36-7.29.15m61.06-.51l-.4 2.66c2.61.46 5.28 1.67 7.95 1 1.1-1.5-.14-3.52-1.89-3.58-1.79-.17-4.13-1.45-5.66-.08m-58.25 10.13c-3.04 3.7-1.29 9.86 3.2 11.48-2.03.05-4.9-.32-4.53 2.63 5.07.38 10.17.47 15.23-.13-.26-.57-.77-1.72-1.03-2.3-1.41-.08-2.82-.14-4.23-.16 4.27-1.82 6.11-7.7 3.13-11.42-2.69-3.87-9.02-3.91-11.77-.1m51.46.35c-2.75 3.77-.85 9.78 3.65 11.15-1.52.05-6.03-.17-4.18 2.51 4.82.75 9.73.33 14.58.12.08-2.94-2.8-2.67-4.91-2.68 4.02-1.95 5.77-7.52 3-11.19-2.7-4.16-9.5-4.08-12.14.09m-62.38.68l-.17 2.75 6.01.03.91-2.04c-2.2-.61-4.48-.73-6.75-.74m77.25 1.73c2.41 1.32 5.16 1.12 7.8.99-.18-3.93-5.89-3.32-7.8-.99m-77.83 5.37c2.55.08 5.1.01 7.63-.3-1.17-3.22-7.85-3.78-7.63.3m78.22-2.34c.43 3.74 4.98 2.13 7.49 2.25-.15-4-4.93-2.22-7.49-2.25m-50.2 10.05c.57 2.43 3.47 2.41 5.42 3 8.02 1.44 16.66 1.37 24.17-2.13-3.35-4.28-9.34-3.71-14.18-4-5.18.17-11.15-.44-15.41 3.13zM46.07 76.48l.69 1.28c3.52 5.88 7.37 11.55 10.9 17.43-4.3.32-9.23-.15-11.96-3.97-3.68-4.25-2.63-10.44.37-14.74zM174.32 76.57c2.85 4.18 3.94 10.06.59 14.29-2.69 4.05-7.83 4.8-12.31 4.3 3.75-6.3 8.06-12.24 11.72-18.59z"/></g><path opacity=".18" d="M197.9 49c1.28.33 2.36.98 3.23 1.93 14.58 18.66 22.39 42.43 21.84 66.1-.34 20.63-6.96 41.11-18.84 57.99-15.52 22.48-40.18 38.4-67.07 43.23-28.92 5.49-59.99-1.99-83.18-20.13-.97-.85-1.59-1.91-1.87-3.2.5.31 1.48.95 1.98 1.27 14.11 9.14 30.45 14.79 47.19 16.36l2.56.21c2.06.13 4.11.2 6.17.24 5.34.01 10.68-.3 15.97-1.05.93-.14 1.86-.29 2.79-.45 17.53-2.94 34.24-10.5 48.08-21.64 4.5-3.66 8.72-7.64 12.59-11.96 5.12-5.75 9.59-12.06 13.38-18.76 8.36-14.95 12.96-31.97 13.24-49.09.52-21.58-5.96-43.19-18.06-61.05z"/><g fill="#d89874"><path d="M68.18 77.18c2.27.01 4.55.13 6.75.74l-.91 2.04-6.01-.03.17-2.75zM145.43 78.91c1.91-2.33 7.62-2.94 7.8.99-2.64.13-5.39.33-7.8-.99zM130.03 90.16c-1.85-2.68 2.66-2.46 4.18-2.51 1.83.01 3.66 0 5.49-.05 2.11.01 4.99-.26 4.91 2.68-4.85.21-9.76.63-14.58-.12z"/></g><g><path d="M83.29 77.29c2.6-1.67 6.35.69 5.91 3.76-.11 2.86-3.71 4.57-6.04 2.94-2.4-1.44-2.33-5.37.13-6.7zM135.17 77.16c2.92-1.62 6.69 1.46 5.62 4.62-.72 2.99-5.15 3.86-6.89 1.3-1.55-1.85-.77-4.79 1.27-5.92z"/></g><g fill="#d99975"><path d="M67.6 84.28c-.22-4.08 6.46-3.52 7.63-.3-2.53.31-5.08.38-7.63.3zM77.77 90.26c-.37-2.95 2.5-2.58 4.53-2.63 1.81.03 3.62.05 5.44.04 1.41.02 2.82.08 4.23.16.26.58.77 1.73 1.03 2.3-5.06.6-10.16.51-15.23.13z"/></g><path fill="#da9a76" d="M145.82 81.94c2.56.03 7.34-1.75 7.49 2.25-2.51-.12-7.06 1.49-7.49-2.25z"/><g fill="#f8a97d"><path d="M95.62 91.99c4.26-3.57 10.23-2.96 15.41-3.13 4.84.29 10.83-.28 14.18 4-7.51 3.5-16.15 3.57-24.17 2.13-1.95-.59-4.85-.57-5.42-3zM106.03 113.15c5.01-1.17 10.08-2.11 15.15-2.96-1.36 2.65-3.01 5.72-6.23 6.32-3.45 1.08-6.61-1.03-8.92-3.36z"/></g><path fill="#e1e1e1" d="M87.08 106.91c-.1-4.63 4.73-7.38 8.86-7.54 8.36-.35 16.73-.01 25.09-.15 4.45-.15 10.4.96 11.79 5.9.74 6.24.85 12.75-.86 18.85-1.08 1.61-2.27 3.14-3.58 4.57-8.19 7.85-21.39 8.64-31.35 3.87-3.11-1.74-5.89-4.09-7.93-7.03-.2-.34-.62-1.03-.83-1.37-1.81-5.5-1.41-11.4-1.19-17.1m18.95 6.24c2.31 2.33 5.47 4.44 8.92 3.36 3.22-.6 4.87-3.67 6.23-6.32-5.07.85-10.14 1.79-15.15 2.96z"/><g fill="#353535"><path d="M79.65 119.55c2.76 1.69 5.69 3.08 8.62 4.46.21.34.63 1.03.83 1.37-1.84 1.92-3.68 3.86-5.51 5.8 2.31 3.53 4.72 7 7.12 10.47-2.86 2.87-5.67 5.78-8.47 8.71 1.1 5.1 2.73 10.07 4.4 15.01 4.88 15.72 9.89 31.39 14.54 47.18-16.74-1.57-33.08-7.22-47.19-16.36 0-6.41.06-12.82-.05-19.23-3.75 3.15-6.72 7.05-9.57 11 .66 1 1.39 1.95 2.23 2.81l-1.93.18.11-1.81c-.64-.07-1.92-.23-2.56-.31l1.42-.33c-5.31-4.31-10.01-9.32-14.37-14.57 5.9-6.89 13.33-12.64 21.94-15.7 1.96-.74 4.02-1.22 5.91-2.12 1.35-2.82 1.99-5.92 3.16-8.81 4.13-10.59 10.41-20.6 19.37-27.75zM136.94 121.58l1.12-.6c10.84 4.83 20.62 12.25 27.39 22.08 13.91.47 27.26 6.52 37.27 16.08-3.79 6.7-8.26 13.01-13.38 18.76-3.81-5.62-8.76-10.41-14.64-13.83 1.82 8.47 2.28 17.15 2.05 25.79-13.84 11.14-30.55 18.7-48.08 21.64 5.53-19.16 11.84-38.09 17.68-57.16.33-1.35.64-2.74.54-4.14-2.24-3.4-5.46-6.01-8.05-9.15 2.31-3.13 4.64-6.24 7.04-9.31-2.64-3.67-5.68-7.03-8.94-10.16m14.58 43.95c-2.75 2.79-5.55 5.54-8.27 8.35-.58.03-1.72.08-2.3.1v4.9c7.03.32 14.08.25 21.12.03l-.03-5c-.53-.02-1.6-.05-2.14-.06-2.78-2.79-5.55-5.58-8.38-8.32z"/></g><g fill="#292929"><path d="M131.96 123.97c1.66-.78 3.33-1.56 4.98-2.39 3.26 3.13 6.3 6.49 8.94 10.16-2.4 3.07-4.73 6.18-7.04 9.31 2.59 3.14 5.81 5.75 8.05 9.15.1 1.4-.21 2.79-.54 4.14-5.84 19.07-12.15 38-17.68 57.16-.93.16-1.86.31-2.79.45.02-15.56 0-31.12.01-46.68v-21.24c2.39 1.02 6.27 2.98 7.84-.3.8-3.82.71-7.81.23-11.67-.11-2.91-3.59-2.71-5.58-3.52 1.31-1.43 2.5-2.96 3.58-4.57zM83.59 131.18c1.83-1.94 3.67-3.88 5.51-5.8 2.04 2.94 4.82 5.29 7.93 7.03-.02 3.75-.49 7.57.31 11.27 1.14 2.71 4.36 1.89 6.43.96l.01 21.07c-.07 15.68 0 31.37-.04 47.05l-2.56-.21c-4.65-15.79-9.66-31.46-14.54-47.18-1.67-4.94-3.3-9.91-4.4-15.01 2.8-2.93 5.61-5.84 8.47-8.71-2.4-3.47-4.81-6.94-7.12-10.47zM140.95 173.98c.58-.02 1.72-.07 2.3-.1 5.55-.22 11.1-.17 16.65-.03.54.01 1.61.04 2.14.06l.03 5c-7.04.22-14.09.29-21.12-.03v-4.9z"/></g><path fill="#1e5a72" d="M97.03 132.41c9.96 4.77 23.16 3.98 31.35-3.87 1.99.81 5.47.61 5.58 3.52.48 3.86.57 7.85-.23 11.67-1.57 3.28-5.45 1.32-7.84.3-1.28-.55-2.55-1.12-3.83-1.68-4.16 1.76-8.87 1.79-13.02-.01-1.76.76-3.5 1.56-5.27 2.3-2.07.93-5.29 1.75-6.43-.96-.8-3.7-.33-7.52-.31-11.27z"/><g fill="#6ea4b8"><path d="M109.04 142.34c4.15 1.8 8.86 1.77 13.02.01 1.28.56 2.55 1.13 3.83 1.68v21.24c-3.83 3.73-7.4 7.73-11.49 11.19-3.45-3.67-7.05-7.2-10.62-10.75l-.01-21.07c1.77-.74 3.51-1.54 5.27-2.3zM151.52 165.53c2.83 2.74 5.6 5.53 8.38 8.32-5.55-.14-11.1-.19-16.65.03 2.72-2.81 5.52-5.56 8.27-8.35z"/></g><path fill="#803037" d="M103.78 165.71c3.57 3.55 7.17 7.08 10.62 10.75-1.48 1.24-2.99 2.43-4.49 3.63-.06 10.97 0 21.94 0 32.91-2.06-.04-4.11-.11-6.17-.24.04-15.68-.03-31.37.04-47.05z"/><path fill="#953e45" d="M114.4 176.46c4.09-3.46 7.66-7.46 11.49-11.19-.01 15.56.01 31.12-.01 46.68-5.29.75-10.63 1.06-15.97 1.05 0-10.97-.06-21.94 0-32.91 1.5-1.2 3.01-2.39 4.49-3.63m-1.11 4.84c-2.26 1.12-.89 4.93 1.55 4.04 3.22-.28 1.18-5.63-1.55-4.04m.85 22.93c-3.04.54-2.39 5.01.64 4.63 2.59-.74 2.04-4.57-.64-4.63z"/><path fill="#b9978d" d="M113.29 181.3c2.73-1.59 4.77 3.76 1.55 4.04-2.44.89-3.81-2.92-1.55-4.04z"/><path fill="#b79088" d="M114.14 204.23c2.68.06 3.23 3.89.64 4.63-3.03.38-3.68-4.09-.64-4.63z"/></svg>