<svg width="224pt" height="224pt" viewBox="0 0 224 224" xmlns="http://www.w3.org/2000/svg"><g fill="#fff"><path d="M72.52 10.3c14.39-5.68 30.05-8.12 45.49-7.05 2.57.18 5.14.14 7.72.21-15.1 6.94-30.33 13.57-45.49 20.37.02-5.29.01-10.58.01-15.87-13.44 7.98-26.87 15.96-40.3 23.95 3.25 11.03 6.51 22.06 9.75 33.09-2.33.12-4.65.21-6.97.34 2.45 6.03 5.32 11.9 7.48 18.04l-.6 1.23c-1.15 1.39-3.05 2.51-3.11 4.5-.25 5.25-.2 10.53-.04 15.78-.08 2.11 1.83 3.36 2.99 4.85 1.4 1.87 2.88 3.69 4.82 5.03 2.38 1.6 3.59 4.35 5.78 6.15 2.24 1.24 4.94.79 7.4 1 6.47 11.56 14.61 22.75 25.75 30.17-2.14 9.64-3.63 19.4-5.04 29.16-7.92 4.7-16.32 8.84-23.35 14.93-1.5 1.24-2.94 2.54-4.39 3.84-4.45-2.44-8.67-5.26-12.77-8.23-20.89-15.87-35.68-39.68-40.06-65.6-4.31-24.14.2-49.77 12.62-70.93 11.75-20.27 30.47-36.44 52.31-44.96zM178.53 27.61l.31.27c2.17 1.84 4.21 3.81 6.37 5.66-3.37.16-6.74.32-10.11.49 1.26-2.08 2.39-4.22 3.43-6.42zM181.19 71.88c4.87-8.56 9.63-17.19 14.74-25.61 19.36 26.2 25.17 61.66 15.41 92.72-7.99 26.22-26.79 48.86-50.98 61.7-3.7-15.81-11.02-31.05-22.25-42.9 2.35-2.2 4.82-4.26 7.19-6.43 8.49-8.35 14.79-18.64 19.89-29.34 3.57-.32 7.4.37 10.78-1.02 2.58-2.29 4.89-5.04 6.55-8.07.54-4.99.2-10.03.24-15.03.33-2.64-1.83-4.47-2.63-6.76 2.62-6.63 6.46-12.71 9.17-19.31-2.7 0-5.41.02-8.11.05zM82.38 88.44c4.09-1.89 9.1 2.03 8.26 6.44-.4 4.35-6.09 6.76-9.5 4.04-3.8-2.48-3.03-8.95 1.24-10.48m.81 2.68c-1.91.99-2.35 3.92-.64 5.31 1.55 1.6 4.64.71 5.18-1.45 1-2.55-2.15-5.15-4.54-3.86zM135.34 88.46c4.12-1.95 9.22 2.04 8.3 6.5-.45 4.32-6.09 6.65-9.49 3.97-3.77-2.49-3.04-8.9 1.19-10.47m.93 2.83c-1.99 1.14-1.99 4.36 0 5.5 2.05 1.33 5.08-.35 4.91-2.82.06-2.41-2.92-4.02-4.91-2.68zM102.63 126.14c7.98-1.66 15.98-3.22 24-4.65-1.53 4.9-5.17 9.62-10.53 10.42-5.21 1.16-10.49-1.53-13.47-5.77z"/></g><g><path d="M125.73 3.46c18.84-.49 37.75-.08 56.62-.2-1.27 2.11-2.56 4.22-3.84 6.33-2.45 4.12-4.91 8.23-7.38 12.33-2.52 4.22-5.07 8.42-7.58 12.63l11.55-.52c3.37-.17 6.74-.33 10.11-.49 2.34-.11 4.67-.22 7.01-.32-.89 1.6-1.83 3.18-2.74 4.76-5.09 9.01-10.24 17.98-15.35 26.97 2.78-.07 5.57-.15 8.36-.21-3 7.06-7.66 13.51-9.5 20.98-1.28-2.2-2.32-5.01-5.04-5.77-2.51-.65-5.14-.48-7.72-.48-.3-4.57-.65-9.14-1.08-13.71-2.32 2.2-4.62 4.42-6.9 6.66-10.37.74-20.76 1.4-31.14 2.05 1.76-3.5 3.53-6.99 5.25-10.51-19.76-1.42-39.53-2.73-59.3-4.04-.56 6.6-2.01 13.08-2.93 19.64-4.79-.01-11.13-1.23-13.92 3.82-2.16-6.14-5.03-12.01-7.48-18.04 2.32-.13 4.64-.22 6.97-.34-3.24-11.03-6.5-22.06-9.75-33.09 13.43-7.99 26.86-15.97 40.3-23.95 0 5.29.01 10.58-.01 15.87 15.16-6.8 30.39-13.43 45.49-20.37zM78.57 79.38c4.04-.14 8.09-.08 12.13-.07l-.02 5.2c-4.01-.01-8.02 0-12.03-.02l-.08-5.11zM131.9 79.3c4.04 0 8.09 0 12.13-.01-.06 1.76-.07 3.52-.12 5.28-3.95-.1-7.9-.1-11.85 0-.05-1.76-.1-3.51-.16-5.27zM83.19 91.12c2.39-1.29 5.54 1.31 4.54 3.86-.54 2.16-3.63 3.05-5.18 1.45-1.71-1.39-1.27-4.32.64-5.31zM136.27 91.29c1.99-1.34 4.97.27 4.91 2.68.17 2.47-2.86 4.15-4.91 2.82-1.99-1.14-1.99-4.36 0-5.5z"/></g><g><path opacity=".33" d="M171.13 21.92c2.47-4.1 4.93-8.21 7.38-12.33 3.46 1 7.09.58 10.64.65-3.16 6.03-6.84 11.78-10.31 17.64l-.31-.27c-2.39-2-4.87-3.87-7.4-5.69z"/><path opacity=".33" d="M191.47 40.47l7.58-.24c-.8 1.64-1.64 3.26-2.45 4.89 14.55 16.66 24.05 37.79 25.99 59.89 2.65 26.49-5.32 53.86-21.85 74.73-15.39 19.81-38.13 33.77-62.79 38.42-29.17 5.8-60.69-1.62-84.11-19.99-2.24-1.92-5.17-3.42-6.19-6.38 4.1 2.97 8.32 5.79 12.77 8.23 4.23 2.34 8.63 4.36 13.14 6.08 1.55.59 3.12 1.15 4.7 1.68 2.64.84 5.3 1.62 7.99 2.27 23.05 5.63 47.99 3.13 69.45-7.02 1.57-.74 3.12-1.54 4.66-2.34 24.19-12.84 42.99-35.48 50.98-61.7 9.76-31.06 3.95-66.52-15.41-92.72-1.44-1.98-2.95-3.89-4.46-5.8z"/></g><g fill="#d1d1d1"><path d="M163.55 34.55c2.51-4.21 5.06-8.41 7.58-12.63 2.53 1.82 5.01 3.69 7.4 5.69-1.04 2.2-2.17 4.34-3.43 6.42l-11.55.52zM174.13 64.95c5.11-8.99 10.26-17.96 15.35-26.97.66.83 1.32 1.66 1.99 2.49 1.51 1.91 3.02 3.82 4.46 5.8-5.11 8.42-9.87 17.05-14.74 25.61 2.7-.03 5.41-.05 8.11-.05-2.71 6.6-6.55 12.68-9.17 19.31.8 2.29 2.96 4.12 2.63 6.76-.04 5 .3 10.04-.24 15.03-1.66 3.03-3.97 5.78-6.55 8.07-3.38 1.39-7.21.7-10.78 1.02-5.1 10.7-11.4 20.99-19.89 29.34-2.37 2.17-4.84 4.23-7.19 6.43 11.23 11.85 18.55 27.09 22.25 42.9-1.54.8-3.09 1.6-4.66 2.34-3.75-19.1-11.06-38.25-24.8-52.45 11.47-8.25 19.62-20.23 25.94-32.68 2.02-3.65 1.44-7.95 1.5-11.94.02-8.8-.15-17.59.07-26.38l1.82-.11c2.58 0 5.21-.17 7.72.48 2.72.76 3.76 3.57 5.04 5.77 1.84-7.47 6.5-13.92 9.5-20.98-2.79.06-5.58.14-8.36.21m-1.82 20.81c.61 7.94.05 15.91.29 23.85 1.78-1.34 3.52-3.14 3.15-5.57-.34-5.93.89-12.08-.9-17.84l-2.54-.44zM86.64 200.38c-.16 3.22-.29 6.45-.39 9.67-2.69-.65-5.35-1.43-7.99-2.27 2.69-2.58 5.5-5.03 8.38-7.4z"/></g><path fill="#f9bb8c" d="M67.06 59.92c19.77 1.31 39.54 2.62 59.3 4.04-1.72 3.52-3.49 7.01-5.25 10.51 10.38-.65 20.77-1.31 31.14-2.05 2.28-2.24 4.58-4.46 6.9-6.66.43 4.57.78 9.14 1.08 13.71l-1.82.11c-.22 8.79-.05 17.58-.07 26.38-.06 3.99.52 8.29-1.5 11.94-6.32 12.45-14.47 24.43-25.94 32.68-6.62 4.57-14.71 7.56-22.85 6.61-5.3-.45-10.16-2.77-14.85-5.1-11.14-7.42-19.28-18.61-25.75-30.17-1.84-3.37-3.9-6.89-3.6-10.89.21-10.49-.33-21 .28-31.47.92-6.56 2.37-13.04 2.93-19.64m11.51 19.46l.08 5.11c4.01.02 8.02.01 12.03.02l.02-5.2c-4.04-.01-8.09-.07-12.13.07m53.33-.08c.06 1.76.11 3.51.16 5.27 3.95-.1 7.9-.1 11.85 0 .05-1.76.06-3.52.12-5.28-4.04.01-8.09.01-12.13.01m-49.52 9.14c-4.27 1.53-5.04 8-1.24 10.48 3.41 2.72 9.1.31 9.5-4.04.84-4.41-4.17-8.33-8.26-6.44m52.96.02c-4.23 1.57-4.96 7.98-1.19 10.47 3.4 2.68 9.04.35 9.49-3.97.92-4.46-4.18-8.45-8.3-6.5m-29.03 12.95c-2.69.58-8.28 2.25-5.52 5.89 5.94 2.92 13.12 3.2 19.25.69 1.78-.63 3.03-2.89 1.28-4.33-4.42-2.8-9.98-3.21-15.01-2.25m-3.68 24.73c2.98 4.24 8.26 6.93 13.47 5.77 5.36-.8 9-5.52 10.53-10.42-8.02 1.43-16.02 2.99-24 4.65z"/><path fill="#d0d0d0" d="M50.21 83.38c2.79-5.05 9.13-3.83 13.92-3.82-.61 10.47-.07 20.98-.28 31.47-.3 4 1.76 7.52 3.6 10.89-2.46-.21-5.16.24-7.4-1-2.19-1.8-3.4-4.55-5.78-6.15-1.94-1.34-3.42-3.16-4.82-5.03.4-8.37.06-16.76.16-25.13l.6-1.23z"/><path fill="#ff5e54" d="M46.5 89.11c.06-1.99 1.96-3.11 3.11-4.5-.1 8.37.24 16.76-.16 25.13-1.16-1.49-3.07-2.74-2.99-4.85-.16-5.25-.21-10.53.04-15.78z"/><g fill="#ff5e55"><path d="M172.31 85.76l2.54.44c1.79 5.76.56 11.91.9 17.84.37 2.43-1.37 4.23-3.15 5.57-.24-7.94.32-15.91-.29-23.85zM108.05 157.19c8.14.95 16.23-2.04 22.85-6.61 13.74 14.2 21.05 33.35 24.8 52.45-21.46 10.15-46.4 12.65-69.45 7.02.1-3.22.23-6.45.39-9.67-2.88 2.37-5.69 4.82-8.38 7.4-1.58-.53-3.15-1.09-4.7-1.68-2.65-3.54-5.72-6.72-8.75-9.92 7.03-6.09 15.43-10.23 23.35-14.93 1.41-9.76 2.9-19.52 5.04-29.16 4.69 2.33 9.55 4.65 14.85 5.1z"/></g><path fill="#f8a97d" d="M106.31 101.41c5.03-.96 10.59-.55 15.01 2.25 1.75 1.44.5 3.7-1.28 4.33-6.13 2.51-13.31 2.23-19.25-.69-2.76-3.64 2.83-5.31 5.52-5.89z"/><path fill="#f7b58c" d="M60.42 200.02c1.45-1.3 2.89-2.6 4.39-3.84 3.03 3.2 6.1 6.38 8.75 9.92-4.51-1.72-8.91-3.74-13.14-6.08z"/></svg>